<svg xmlns="http://www.w3.org/2000/svg" width="100" height="100" viewBox="0 0 100 100">
  <path fill="#FF9900" d="M28.14,57.52c0,0.55,0.06,1,0.17,1.31c0.12,0.32,0.28,0.67,0.49,1.05c0.08,0.12,0.11,0.25,0.11,0.38
    c0,0.17-0.1,0.33-0.31,0.5l-1.03,0.68c-0.15,0.1-0.29,0.14-0.43,0.14c-0.17,0-0.33-0.08-0.5-0.23c-0.22-0.25-0.42-0.5-0.58-0.77
    c-0.16-0.26-0.32-0.55-0.49-0.88c-1.23,1.45-2.77,2.17-4.63,2.17c-1.32,0-2.37-0.38-3.15-1.13c-0.78-0.75-1.17-1.76-1.17-3.01
    c0-1.33,0.47-2.41,1.42-3.24c0.94-0.83,2.2-1.24,3.77-1.24c0.52,0,1.06,0.04,1.62,0.13c0.56,0.09,1.15,0.22,1.74,0.38v-1.11
    c0-1.14-0.24-1.94-0.72-2.41c-0.48-0.46-1.3-0.7-2.45-0.7c-0.53,0-1.07,0.06-1.63,0.19c-0.56,0.13-1.1,0.29-1.64,0.5
    c-0.25,0.1-0.43,0.16-0.55,0.19c-0.12,0.03-0.2,0.04-0.27,0.04c-0.24,0-0.36-0.17-0.36-0.52v-0.82c0-0.27,0.04-0.47,0.11-0.58
    c0.08-0.12,0.21-0.23,0.42-0.34c0.53-0.28,1.17-0.5,1.91-0.69c0.74-0.18,1.52-0.27,2.35-0.27c1.79,0,3.1,0.4,3.94,1.21
    c0.84,0.81,1.26,2.04,1.26,3.69V57.52z M22.74,60.35c0.51,0,1.03-0.09,1.58-0.27c0.55-0.18,1.03-0.51,1.45-0.99
    c0.25-0.3,0.43-0.63,0.53-1.01c0.1-0.37,0.15-0.82,0.15-1.35v-0.65c-0.44-0.11-0.9-0.2-1.39-0.26c-0.49-0.06-0.96-0.1-1.43-0.1
    c-1.02,0-1.77,0.2-2.25,0.6c-0.48,0.4-0.72,0.96-0.72,1.69c0,0.68,0.17,1.19,0.52,1.54C21.53,60.17,22.05,60.35,22.74,60.35z
     M36.92,62.17c-0.3,0-0.51-0.05-0.63-0.16c-0.12-0.11-0.23-0.35-0.33-0.74l-3.67-12.08c-0.1-0.39-0.15-0.65-0.15-0.76
    c0-0.31,0.15-0.46,0.46-0.46h1.88c0.31,0,0.52,0.05,0.63,0.16c0.12,0.11,0.22,0.35,0.31,0.74l2.63,10.35l2.44-10.35
    c0.08-0.39,0.17-0.63,0.29-0.74c0.12-0.1,0.34-0.16,0.65-0.16h1.53c0.32,0,0.54,0.05,0.66,0.16c0.12,0.11,0.23,0.35,0.29,0.74
    l2.46,10.48l2.7-10.48c0.1-0.39,0.2-0.63,0.31-0.74c0.12-0.11,0.33-0.16,0.64-0.16h1.79c0.31,0,0.46,0.15,0.46,0.46
    c0,0.09-0.02,0.18-0.04,0.29c-0.03,0.11-0.06,0.25-0.13,0.46l-3.76,12.08c-0.1,0.39-0.21,0.63-0.33,0.74
    c-0.12,0.11-0.33,0.16-0.63,0.16h-1.65c-0.32,0-0.54-0.05-0.66-0.16c-0.12-0.11-0.22-0.35-0.29-0.74l-2.41-10.02l-2.4,10.02
    c-0.07,0.39-0.17,0.63-0.29,0.74c-0.12,0.11-0.34,0.16-0.66,0.16H36.92z M60.24,62.55c-0.78,0-1.56-0.09-2.32-0.27
    c-0.76-0.18-1.36-0.38-1.78-0.6c-0.25-0.13-0.42-0.27-0.49-0.4c-0.07-0.13-0.11-0.28-0.11-0.42v-0.85c0-0.35,0.13-0.52,0.38-0.52
    c0.1,0,0.2,0.02,0.3,0.05c0.1,0.03,0.25,0.09,0.43,0.16c0.58,0.26,1.21,0.46,1.88,0.6c0.68,0.14,1.34,0.21,2.02,0.21
    c1.07,0,1.9-0.19,2.49-0.56c0.59-0.37,0.88-0.9,0.88-1.59c0-0.46-0.15-0.85-0.44-1.16c-0.29-0.31-0.84-0.59-1.64-0.85l-2.35-0.73
    c-1.18-0.37-2.05-0.92-2.61-1.65c-0.56-0.72-0.84-1.52-0.84-2.4c0-0.69,0.14-1.3,0.43-1.82c0.28-0.52,0.67-0.97,1.16-1.34
    c0.49-0.37,1.05-0.65,1.69-0.85c0.64-0.19,1.32-0.29,2.03-0.29c0.36,0,0.73,0.02,1.09,0.07c0.37,0.05,0.71,0.11,1.04,0.18
    c0.32,0.07,0.63,0.15,0.92,0.23c0.29,0.09,0.52,0.17,0.68,0.26c0.22,0.12,0.39,0.24,0.49,0.37c0.1,0.13,0.15,0.29,0.15,0.5v0.79
    c0,0.35-0.13,0.53-0.38,0.53c-0.14,0-0.36-0.07-0.67-0.21c-1-0.46-2.13-0.7-3.37-0.7c-0.97,0-1.73,0.16-2.28,0.48
    c-0.55,0.32-0.82,0.81-0.82,1.48c0,0.46,0.16,0.85,0.49,1.17c0.33,0.32,0.93,0.63,1.82,0.91l2.3,0.73c1.17,0.37,2,0.88,2.51,1.55
    c0.51,0.67,0.76,1.45,0.76,2.34c0,0.7-0.14,1.33-0.42,1.88c-0.28,0.55-0.66,1.03-1.16,1.42c-0.49,0.4-1.08,0.7-1.77,0.91
    C61.78,62.44,61.04,62.55,60.24,62.55z"/>
  <path fill="#FF9900" d="M70.82,63.2c-4.43,3.27-10.85,5-16.4,5c-7.76,0-14.74-2.87-20.01-7.63c-0.42-0.38-0.04-0.89,0.45-0.6
    c5.7,3.32,12.73,5.32,20.01,5.32c4.91,0,10.3-1.02,15.26-3.13C70.99,61.83,71.64,62.6,70.82,63.2z"/>
  <path fill="#FF9900" d="M72.76,60.99c-0.56-0.72-3.73-0.34-5.16-0.17c-0.43,0.05-0.5-0.32-0.11-0.6c2.53-1.77,6.66-1.26,7.14-0.67
    c0.48,0.6-0.13,4.75-2.5,6.73c-0.37,0.3-0.71,0.14-0.55-0.26C72.16,64.47,73.33,61.71,72.76,60.99z"/>
</svg> 